<svg xmlns="http://www.w3.org/2000/svg">
  <symbol id="bluesky-icon" viewBox="0 0 16 17">
    <g clip-path="url(#bluesky-clip)"><path fill="#08060d" d="M7.75 7.735c-.693-1.348-2.58-3.86-4.334-5.097-1.68-1.187-2.32-.981-2.74-.79C.188 2.065.1 2.812.1 3.251s.241 3.602.398 4.13c.52 1.744 2.367 2.333 4.07 2.145-2.495.37-4.71 1.278-1.805 4.512 3.196 3.309 4.38-.71 4.987-2.746.608 2.036 1.307 5.91 4.93 2.746 2.72-2.746.747-4.143-1.747-4.512 1.702.189 3.55-.4 4.07-2.145.156-.528.397-3.691.397-4.13s-.088-1.186-.575-1.406c-.42-.19-1.06-.395-2.741.79-1.755 1.24-3.64 3.752-4.334 5.099"/></g>
    <defs><clipPath id="bluesky-clip"><path fill="#fff" d="M.1.85h15.3v15.3H.1z"/></clipPath></defs>
  </symbol>

  <symbol id="discord-icon" viewBox="0 0 20 19">
    <path fill="#08060d" d="M16.224 3.768a14.5 14.5 0 0 0-3.67-1.153c-.158.286-.343.67-.47.976a13.5 13.5 0 0 0-4.067 0c-.128-.306-.317-.69-.476-.976A14.4 14.4 0 0 0 3.868 3.77C1.546 7.28.916 10.703 1.231 14.077a14.7 14.7 0 0 0 4.5 2.306q.545-.748.965-1.587a9.5 9.5 0 0 1-1.518-.74q.191-.14.372-.293c2.927 1.369 6.107 1.369 8.999 0q.183.152.372.294-.723.437-1.52.74.418.838.963 1.588a14.6 14.6 0 0 0 4.504-2.308c.37-3.911-.63-7.302-2.644-10.309m-9.13 8.234c-.878 0-1.599-.82-1.599-1.82 0-.998.705-1.82 1.6-1.82.894 0 1.614.82 1.599 1.82.001 1-.705 1.82-1.6 1.82m5.91 0c-.878 0-1.599-.82-1.599-1.82 0-.998.705-1.82 1.6-1.82.893 0 1.614.82 1.599 1.82 0 1-.706 1.82-1.6 1.82"/>
  </symbol>

  <symbol id="documentation-icon" viewBox="0 0 21 20">
    <path fill="none" stroke="#aa3bff" stroke-linecap="round" stroke-linejoin="round" stroke-width="1.35" d="m15.5 13.333 1.533 1.322c.645.555.967.833.967 1.178s-.322.623-.967 1.179L15.5 18.333m-3.333-5-1.534 1.322c-.644.555-.966.833-.966 1.178s.322.623.966 1.179l1.534 1.321"/>
    <path fill="none" stroke="#aa3bff" stroke-linecap="round" stroke-linejoin="round" stroke-width="1.35" d="M17.167 10.836v-4.32c0-1.41 0-2.117-.224-2.68-.359-.906-1.118-1.621-2.08-1.96-.599-.21-1.349-.21-2.848-.21-2.623 0-3.935 0-4.983.369-1.684.591-3.013 1.842-3.641 3.428C3 6.449 3 7.684 3 10.154v2.122c0 2.558 0 3.838.706 4.726q.306.383.713.671c.76.536 1.79.64 3.581.66"/>
    <path fill="none" stroke="#aa3bff" stroke-linecap="round" stroke-linejoin="round" stroke-width="1.35" d="M3 10a2.78 2.78 0 0 1 2.778-2.778c.555 0 1.209.097 1.748-.047.48-.129.854-.503.982-.982.145-.54.048-1.194.048-1.749a2.78 2.78 0 0 1 2.777-2.777"/>
  </symbol>

  <symbol id="github-icon" viewBox="0 0 19 19">
    <path fill="#08060d" fill-rule="evenodd" d="M9.356 1.85C5.05 1.85 1.57 5.356 1.57 9.694a7.84 7.84 0 0 0 5.324 7.44c.387.079.528-.168.528-.376 0-.182-.013-.805-.013-1.454-2.165.467-2.616-.935-2.616-.935-.349-.91-.864-1.143-.864-1.143-.71-.48.051-.48.051-.48.787.051 1.2.805 1.2.805.695 1.194 1.817.857 2.268.649.064-.507.27-.857.49-1.052-1.728-.182-3.545-.857-3.545-3.87 0-.857.31-1.558.8-2.104-.078-.195-.349-1 .077-2.078 0 0 .657-.208 2.14.805a7.5 7.5 0 0 1 1.946-.26c.657 0 1.328.092 1.946.26 1.483-1.013 2.14-.805 2.14-.805.426 1.078.155 1.883.078 2.078.502.546.799 1.247.799 2.104 0 3.013-1.818 3.675-3.558 3.87.284.247.528.714.528 1.454 0 1.052-.012 1.896-.012 2.156 0 .208.142.455.528.377a7.84 7.84 0 0 0 5.324-7.441c.013-4.338-3.48-7.844-7.773-7.844" clip-rule="evenodd"/>
  </symbol>

  <symbol id="social-icon" viewBox="0 0 20 20">
    <path fill="none" stroke="#aa3bff" stroke-linecap="round" stroke-linejoin="round" stroke-width="1.35" d="M12.5 6.667a4.167 4.167 0 1 0-8.334 0 4.167 4.167 0 0 0 8.334 0"/>
    <path fill="none" stroke="#aa3bff" stroke-linecap="round" stroke-linejoin="round" stroke-width="1.35" d="M2.5 16.667a5.833 5.833 0 0 1 8.75-5.053m3.837.474.513 1.035c.07.144.257.282.414.309l.93.155c.596.1.736.536.307.965l-.723.73a.64.64 0 0 0-.152.531l.207.903c.164.715-.213.991-.84.618l-.872-.52a.63.63 0 0 0-.577 0l-.872.52c-.624.373-1.003.094-.84-.618l.207-.903a.64.64 0 0 0-.152-.532l-.723-.729c-.426-.43-.289-.864.306-.964l.93-.156a.64.64 0 0 0 .412-.31l.513-1.034c.28-.562.735-.562 1.012 0"/>
  </symbol>

  <symbol id="x-icon" viewBox="0 0 19 19">
    <path fill="#08060d" fill-rule="evenodd" d="M1.893 1.98c.052.072 1.245 1.769 2.653 3.77l2.892 4.114c.183.261.333.48.333.486s-.068.089-.152.183l-.522.593-.765.867-3.597 4.087c-.375.426-.734.834-.798.905a1 1 0 0 0-.118.148c0 .01.236.017.664.017h.663l.729-.83c.4-.457.796-.906.879-.999a692 692 0 0 0 1.794-2.038c.034-.037.301-.34.594-.675l.551-.624.345-.392a7 7 0 0 1 .34-.374c.006 0 .93 1.306 2.052 2.903l2.084 2.965.045.063h2.275c1.87 0 2.273-.003 2.266-.021-.008-.02-1.098-1.572-3.894-5.547-2.013-2.862-2.28-3.246-2.273-3.266.008-.019.282-.332 2.085-2.38l2-2.274 1.567-1.782c.022-.028-.016-.03-.65-.03h-.674l-.3.342a871 871 0 0 1-1.782 2.025c-.067.075-.405.458-.75.852a100 100 0 0 1-.803.91c-.148.172-.299.344-.99 1.127-.304.343-.32.358-.345.327-.015-.019-.904-1.282-1.976-2.808L6.365 1.85H1.8zm1.782.91 8.078 11.294c.772 1.08 1.413 1.973 1.425 1.984.016.017.241.02 1.05.017l1.03-.004-2.694-3.766L7.796 5.75 5.722 2.852l-1.039-.004-1.039-.004z" clip-rule="evenodd"/>
  </symbol>

  <symbol id="python" viewBox="0 0 24 24">
    <path fill="currentColor" fill-rule="evenodd" d="M14.25.18l.9.2.73.26.59.3.45.32.34.34.25.34.16.33.1.3.04.26.02.2-.01.13V8.5l-.05.63-.13.55-.21.46-.26.38-.3.31-.33.25-.35.19-.35.14-.33.1-.3.07-.26.04-.21.02H8.77l-.69.05-.59.14-.5.22-.41.27-.33.32-.27.35-.2.36-.15.37-.1.35-.07.32-.04.27-.02.21v3.06H3.17l-.21-.03-.28-.07-.32-.12-.35-.18-.36-.26-.36-.36-.35-.46-.32-.59-.28-.73-.21-.88-.14-1.05-.05-1.23.06-1.22.16-1.04.24-.87.32-.71.36-.57.4-.44.42-.33.42-.24.4-.16.36-.1.32-.05.24-.01h.16l.06.01h8.16v-.83H6.18l-.01-2.75-.02-.37.05-.34.11-.31.17-.28.25-.26.31-.23.38-.2.44-.18.51-.15.58-.12.64-.1.71-.06.77-.04.84-.02 1.27.05zm-6.3 1.98l-.23.33-.08.41.08.41.23.34.33.22.41.09.41-.09.33-.22.23-.34.08-.41-.08-.41-.23-.33-.33-.22-.41-.09-.41.09zm13.09 3.95l.28.06.32.12.35.18.36.27.36.35.35.47.32.59.28.73.21.88.14 1.04.05 1.23-.06 1.23-.16 1.04-.24.86-.32.71-.36.57-.4.45-.42.33-.42.24-.4.16-.36.09-.32.05-.24.02-.16-.01h-8.22v.82h5.84l.01 2.76.02.36-.05.34-.11.31-.17.29-.25.25-.31.24-.38.2-.44.17-.51.15-.58.13-.64.09-.71.07-.77.04-.84.01-1.27-.04-1.07-.14-.9-.2-.73-.25-.59-.3-.45-.33-.34-.34-.25-.34-.16-.33-.1-.3-.04-.25-.02-.2.01-.13v-5.34l.05-.64.13-.54.21-.46.26-.38.3-.32.33-.24.35-.2.35-.14.33-.1.3-.06.26-.04.21-.02.13-.01h5.84l.69-.05.59-.14.5-.21.41-.28.33-.32.27-.35.2-.36.15-.36.1-.35.07-.32.04-.28.02-.21V6.07h2.09l.14.01zm-6.47 14.25l-.23.33-.08.41.08.41.23.33.33.23.41.08.41-.08.33-.23.23-.33.08-.41-.08-.41-.23-.33-.33-.23-.41-.08-.41.08z" clip-rule="evenodd"/>
  </symbol>

  <symbol id="git" viewBox="0 0 24 24">
    <path fill="currentColor" fill-rule="evenodd" d="M13.09 23.549a1.54 1.54 0 0 1-2.18 0L.451 13.089a1.54 1.54 0 0 1 0-2.179l7.191-7.19 2.733 2.733a1.85 1.85 0 0 0 .964 2.326v6.66a1.849 1.849 0 1 0 1.54 0V8.957l2.508 2.508a1.85 1.85 0 1 0 1.09-1.09l-2.634-2.634a1.85 1.85 0 0 0-2.378-2.377L8.73 2.63 10.91.451a1.54 1.54 0 0 1 2.179 0l10.459 10.46a1.54 1.54 0 0 1 0 2.179z" clip-rule="evenodd"/>
  </symbol>

  <symbol id="apps-script" viewBox="-3 -3 30 30">
    <path fill="currentColor" fill-rule="evenodd" d="M12.363 2.54a3.136 3.136 0 0 0-.376.022 2.864 2.864 0 0 0-1.589.828c-.562.58-.82 1.115-.773 1.943-.01.264.193 1.023.272 1.274 1.115 3.546 2.09 6.75 3.26 10.279.08.246.168.486.267.72.02.047.035.046.048-.004.077-.297.174-.612.29-.945.894-2.576 1.772-5.14 2.633-7.696a.345.345 0 0 0 .004-.217 163.054 163.054 0 0 0-1.49-4.572 2.603 2.603 0 0 0-.704-.933c-.55-.46-1.166-.694-1.842-.7Zm9.078.117a2.734 2.734 0 0 0-2.878 1.828l-4.576 13.289a2.734 2.734 0 0 0 1.695 3.475l.12.04a2.734 2.734 0 0 0 3.475-1.694L23.85 6.307a2.734 2.734 0 0 0-1.695-3.476c-.233-.1-.506-.124-.716-.174ZM12.375 3.96a1.396 1.396 0 1 1 0 2.791 1.395 1.395 0 0 1 0-2.79zm8.809.07a1.402 1.402 0 1 1 0 2.803 1.402 1.402 0 0 1 0-2.803zM5.419 7.605a2.853 2.853 0 0 0-.468.052 2.683 2.683 0 0 0-1.337.627 2.62 2.62 0 0 0-.924 1.833 3.808 3.808 0 0 0 0 .648 2.52 2.52 0 0 0 .673 1.52c.221.238.465.454.732.648 3.043 2.21 6.08 4.43 9.108 6.664a.78.78 0 0 0 .158.089c.03-.043.032-.098.007-.167a17.409 17.409 0 0 0-.317-1.066 532.752 532.752 0 0 1-2.02-6.251 41.91 41.91 0 0 0-.497-1.477c-.967-.849-2.078-1.6-3.023-2.302A3.848 3.848 0 0 0 6.153 7.7a2.388 2.388 0 0 0-.734-.094Zm.02 1.424a1.398 1.398 0 1 1 0 2.796 1.398 1.398 0 0 1 0-2.796zm-2.458 6.792c-.733-.006-1.375.202-1.927.622a2.72 2.72 0 0 0-.95 1.45 2.78 2.78 0 0 0-.09 1.04 2.74 2.74 0 0 0 .695 1.583c.664.578 1.26.85 2 .945 1.42-.005 2.84-.012 4.262-.02h.418c2.277-.003 4.513-.002 6.706.003.148.005.28.003.392-.01.06-.005.091-.031.092-.077a10.656 10.656 0 0 0-.834-.653 488.746 488.746 0 0 1-6.57-4.815.236.236 0 0 0-.14-.047c-1.34-.003-2.691-.01-4.054-.02zm-.19 1.418a1.402 1.402 0 1 1 0 2.803 1.402 1.402 0 0 1 0-2.803zm13.874.002a1.4 1.4 0 1 1 0 2.8 1.4 1.4 0 0 1 0-2.8z" clip-rule="evenodd"/>
  </symbol>

  <symbol id="google-sheets" viewBox="0 0 24 24">
    <path fill="currentColor" fill-rule="evenodd" d="M11.318 12.545H7.91v-1.909h3.41v1.91zM14.728 0v6h6l-6-6zm1.363 10.636h-3.41v1.91h3.41v-1.91zm0 3.273h-3.41v1.91h3.41v-1.91zM20.727 6.5v15.864c0 .904-.732 1.636-1.636 1.636H4.909a1.636 1.636 0 0 1-1.636-1.636V1.636C3.273.732 4.005 0 4.909 0h9.318v6.5h6.5zm-3.273 2.773H6.545v7.909h10.91v-7.91zm-6.136 4.636H7.91v1.91h3.41v-1.91z" clip-rule="evenodd"/>
  </symbol>

  <symbol id="sap" viewBox="0 0 24 24">
    <path fill="currentColor" fill-rule="evenodd" d="M0 6.064v11.872h12.13L24 6.064zm3.264 2.208h.005c.863.001 1.915.245 2.676.633l-.82 1.43c-.835-.404-1.255-.442-1.73-.467-.708-.038-1.064.215-1.069.488-.007.332.669.633 1.305.838.964.306 2.19.715 2.377 1.9L7.77 8.437h2.046l2.064 5.576-.007-5.575h2.37c2.257 0 3.318.764 3.318 2.519 0 1.575-1.09 2.514-2.936 2.514h-.763l-.01 2.094-3.588-.003-.25-.908c-.37.122-.787.189-1.23.189-.456 0-.885-.071-1.263-.2l-.358.919-2 .006.09-.462c-.029.025-.057.05-.087.074-.535.43-1.208.629-2.037.644l-.213.002a5.075 5.075 0 0 1-2.581-.675l.73-1.448c.79.467 1.286.572 1.956.558.347-.007.598-.07.761-.239a.557.557 0 0 0 .156-.369c.007-.376-.53-.553-1.185-.756-.531-.164-1.135-.389-1.606-.735-.559-.41-.825-.924-.812-1.65a1.99 1.99 0 0 1 .566-1.377c.519-.537 1.357-.863 2.363-.863zm10.597 1.67v1.904h.521c.694 0 1.247-.23 1.248-.964 0-.709-.554-.94-1.248-.94zm-5.087.767l-.748 2.362c.223.085.481.133.757.133.268 0 .52-.047.742-.126l-.736-2.37z" clip-rule="evenodd"/>
  </symbol>

  <symbol id="airflow" viewBox="-3 -3 30 30">
    <path fill="currentColor" fill-rule="evenodd" d="M17.195 16.822l4.002-4.102C23.55 10.308 23.934 5.154 24 .43a.396.396 0 0 0-.246-.373.392.392 0 0 0-.437.09l-6.495 6.658-4.102-4.003C10.309.45 5.154.066.43 0H.423a.397.397 0 0 0-.277.683l6.658 6.494-4.003 4.103C.45 13.692.065 18.846 0 23.57a.398.398 0 0 0 .683.282l6.494-6.657 3.934 3.837.17.165c2.41 2.353 7.565 2.737 12.288 2.803h.006a.397.397 0 0 0 .277-.683l-6.657-6.495zm-.409-9.476c.04.115.05.24.031.344-.17.96-1.593 2.538-4.304 3.87a.597.597 0 0 0-.08-.079c1.432-3.155 1.828-5.61 1.175-7.322l3.058 2.984.12.203zm-.131 9.44a.73.73 0 0 1-.347.031c-.96-.171-2.537-1.594-3.87-4.307a.656.656 0 0 0 .08-.078l-.001.001c3.155 1.432 5.61 1.83 7.324 1.174l-2.969 3.043M23.568.392a.05.05 0 0 1 .052-.011c.018.006.03.024.029.043-.065 4.655-.437 9.726-2.703 12.05-1.53 1.565-4.326 1.419-8.283-.377.006-.037.021-.07.02-.108 0-.044-.017-.082-.026-.123 2.83-1.39 4.315-3.037 4.506-4.115.057-.322-.009-.542-.102-.688l6.507-6.67V.392zM.393.43A.045.045 0 0 1 .382.38C.39.36.403.343.425.35c4.655.065 9.727.438 12.05 2.703l.002.002c1.56 1.527 1.415 4.323-.379 8.28-.033-.005-.062-.02-.097-.02h-.008c-.045.001-.084.019-.126.027-1.39-2.83-3.037-4.314-4.115-4.506-.323-.057-.542.01-.688.103L.393.43zm11.94 11.563a.331.331 0 0 1-.327.335H12a.332.332 0 0 1-.004-.661c.172.016.333.144.335.326h.002zm-5.12 4.661a.722.722 0 0 1-.03-.345c.17-.96 1.595-2.54 4.309-3.873.013.016.019.035.033.05.013.012.03.017.044.028-1.434 3.158-1.83 5.613-1.177 7.326l-3.041-2.967m-.006-9.659a.735.735 0 0 1 .345-.031c.961.17 2.54 1.594 3.871 4.306a.597.597 0 0 0-.079.08c-2.167-.983-4.007-1.484-5.498-1.484-.68 0-1.289.103-1.825.308L7.128 7.35M.43 23.607c-.018.018-.038.015-.052.01-.019-.007-.028-.021-.028-.043.065-4.654.437-9.725 2.703-12.049 1.527-1.565 4.325-1.419 8.286.378-.006.035-.02.067-.02.104 0 .043.018.083.026.124-2.831 1.391-4.317 3.04-4.51 4.117-.057.322.01.542.103.688L.43 23.607zm23.144.042c-4.655-.065-9.726-.437-12.05-2.703l-.005-.006c-1.56-1.526-1.412-4.322.383-8.279.033.005.064.02.098.02h.009c.043 0 .08-.018.122-.027 1.39 2.832 3.036 4.317 4.115 4.51.083.014.16.021.23.021a.776.776 0 0 0 .45-.133l6.68 6.516c.02.02.016.04.01.052a.042.042 0 0 1-.042.029z" clip-rule="evenodd"/>
  </symbol>

  <symbol id="sql" viewBox="-8.78 0 70 70">
    <path fill="currentColor" d="m 852.97077,1013.9363 c -6.55238,-0.4723 -13.02857,-2.1216 -17.00034,-4.3296 -2.26232,-1.2576 -3.98589,-2.8032 -4.66223,-4.1807 l -0.4024,-0.8196 0,-25.70807 0,-25.7081 0.31843,-0.6465 c 1.42297,-2.889 5.96432,-5.4935 12.30378,-7.0562 2.15195,-0.5305 5.2586,-1.0588 7.79304,-1.3252 2.58797,-0.2721 9.44765,-0.2307 12.02919,0.073 6.86123,0.8061 12.69967,2.6108 16.29768,5.0377 1.38756,0.9359 2.81137,2.4334 3.29371,3.4642 l 0.41358,0.8838 -0.0354,25.6303 -0.0354,25.63047 -0.33195,0.6744 c -0.18257,0.3709 -0.73406,1.1007 -1.22553,1.6216 -2.99181,3.1715 -9.40919,5.5176 -17.8267,6.5172 -1.71567,0.2038 -9.16916,0.3686 -10.92937,0.2417 z m 12.07501,-22.02839 c -0.0252,-0.0657 -1.00472,-0.93831 -2.17671,-1.93922 -1.17199,-1.00091 -2.18138,-1.86687 -2.24309,-1.92436 -0.0617,-0.0575 0.15481,-0.26106 0.48117,-0.45237 0.32635,-0.19131 0.95163,-0.7235 1.3895,-1.18265 1.2805,-1.34272 1.88466,-3.00131 1.88466,-5.17388 0,-2.1388 -0.65162,-3.8645 -1.95671,-5.1818 -1.31533,-1.3278 -2.82554,-1.8983 -5.02486,-1.8983 -3.39007,0 -5.99368,1.9781 -6.82468,5.1851 -0.28586,1.1031 -0.28432,3.33211 0.003,4.31023 0.74941,2.55136 2.79044,4.40434 5.33062,4.83946 0.8596,0.14724 0.97605,0.21071 1.5621,0.85144 0.34829,0.38078 1.06301,1.14085 1.58827,1.68904 l 0.95501,0.9967 2.53878,0 c 1.39633,0 2.51816,-0.0537 2.49296,-0.11939 z m -8.70653,-7.10848 c -0.61119,-0.31868 -0.84225,-0.56599 -1.19079,-1.27453 -0.26919,-0.54724 -0.31522,-0.85851 -0.31824,-2.15197 -0.003,-1.3143 0.0388,-1.5983 0.31987,-2.169 0.45985,-0.9339 1.09355,-1.376 2.07384,-1.4469 1.36454,-0.099 2.15217,0.5707 2.56498,2.1801 0.50612,1.97321 -0.0504,4.07107 -1.26471,4.76729 -0.63707,0.36527 -1.58737,0.40659 -2.18495,0.095 z m -11.25315,3.66269 c 2.66179,-0.5048 4.1728,-2.0528 4.1728,-4.27495 0,-1.97137 -0.97548,-3.12004 -3.6716,-4.32364 -1.54338,-0.689 -2.10241,-1.1215 -2.10241,-1.6268 0,-0.4188 0.53052,-0.8777 1.14813,-0.993 0.60302,-0.1126 2.20237,0.1652 3.14683,0.5467 l 0.79167,0.3198 0,-1.7524 0,-1.7525 -0.85923,-0.1906 c -0.53103,-0.1178 -1.64689,-0.1885 -2.92137,-0.1849 -1.80528,0 -2.15881,0.044 -2.83818,0.3138 -1.98445,0.7878 -2.92613,2.1298 -2.91107,4.1485 0.0141,1.8898 1.01108,3.06864 3.49227,4.12912 1.46399,0.62572 2.05076,1.10218 2.05076,1.66522 0,1.1965 -1.99362,1.34375 -4.10437,0.30315 -0.57805,-0.28498 -1.09739,-0.54137 -1.1541,-0.56976 -0.0567,-0.0284 -0.10311,0.79023 -0.10311,1.81917 0,1.86239 0.002,1.87137 0.33919,1.99974 1.26979,0.48278 4.07626,0.69787 5.52379,0.42335 z m 30.4308,-1.72766 0,-1.58098 -2.40584,0 -2.40583,0 0,-5.43035 0,-5.4303 -2.13089,0 -2.13088,0 0,7.0113 0,7.01131 4.53672,0 4.53672,0 0,-1.58098 z m -14.84745,-27.70503 c 4.23447,-0.2937 7.4086,-0.8482 10.20178,-1.7821 2.78264,-0.9304 4.42643,-2.0562 4.79413,-3.2834 0.14166,-0.4729 0.13146,-0.6523 -0.0665,-1.1708 -0.88775,-2.3245 -5.84694,-4.1104 -13.42493,-4.8345 -3.24154,-0.3098 -9.13671,-0.2094 -12.22745,0.2081 -4.71604,0.6372 -8.54333,1.8208 -10.2451,3.1683 -3.44251,2.726 0.19793,5.7242 8.66397,7.1354 3.67084,0.6119 8.42674,0.828 12.30414,0.559 z" transform="translate(-830.906 -943.981)"/>
  </symbol>

  <symbol id="rpa" viewBox="0 0 24 24" fill="none">
    <path d="M4.19995 18V11C4.19995 9.34315 5.5431 8 7.19995 8H16.8C18.4568 8 19.8 9.34315 19.8 11V18C19.8 19.6569 18.4568 21 16.8 21H7.19995C5.5431 21 4.19995 19.6569 4.19995 18Z" stroke="currentColor" stroke-width="1.7"/>
    <path d="M12 5L12 8" stroke="currentColor" stroke-width="1.7" stroke-linecap="round"/>
    <path d="M20 12H21C22.1046 12 23 12.8954 23 14V15.4459C23 16.2637 22.5021 16.9992 21.7428 17.3029L20 18" stroke="currentColor" stroke-width="1.7"/>
    <path d="M4 12H3C1.89543 12 1 12.8954 1 14V15.4459C1 16.2637 1.4979 16.9992 2.25722 17.3029L4 18" stroke="currentColor" stroke-width="1.7"/>
    <path fill-rule="evenodd" clip-rule="evenodd" d="M16 11.15C16.4695 11.15 16.85 11.5306 16.85 12V14C16.85 14.4694 16.4695 14.85 16 14.85C15.5306 14.85 15.15 14.4694 15.15 14V12C15.15 11.5306 15.5306 11.15 16 11.15Z" fill="currentColor"/>
    <path fill-rule="evenodd" clip-rule="evenodd" d="M8.00002 11.15C8.46947 11.15 8.85002 11.5306 8.85002 12V14C8.85002 14.4694 8.46947 14.85 8.00002 14.85C7.53058 14.85 7.15002 14.4694 7.15002 14V12C7.15002 11.5306 7.53058 11.15 8.00002 11.15Z" fill="currentColor"/>
    <circle cx="12" cy="3" r="2" fill="currentColor"/>
    <path d="M10 17H14" stroke="currentColor" stroke-width="1.7" stroke-linecap="round"/>
    <path d="M22 12V10" stroke="currentColor" stroke-width="1.7" stroke-linecap="round"/>
    <path d="M2 12V10" stroke="currentColor" stroke-width="1.7" stroke-linecap="round"/>
  </symbol>

  <symbol id="pipeline" viewBox="50 100 900 900">
    <g fill="currentColor">
      <path d="M344.078 887.828H8.23c-4.42 0-7.996-3.576-7.996-7.996s3.576-7.996 7.996-7.996h335.846c4.418 0 7.996 3.576 7.996 7.996s-3.576 7.996-7.994 7.996zM344.078 935.806H8.23a7.992 7.992 0 0 1-7.996-7.998 7.992 7.992 0 0 1 7.996-7.996h335.846a7.994 7.994 0 0 1 7.996 7.996 7.99 7.99 0 0 1-7.994 7.998zM1015.77 935.806H679.924a7.994 7.994 0 0 1-7.998-7.998 7.994 7.994 0 0 1 7.998-7.996h335.846a7.992 7.992 0 0 1 7.996 7.996 7.992 7.992 0 0 1-7.996 7.998zM1015.77 887.828H679.924c-4.42 0-7.998-3.576-7.998-7.996s3.578-7.996 7.998-7.996h335.846c4.42 0 7.996 3.576 7.996 7.996s-3.576 7.996-7.996 7.996zM647.938 951.798H376.062a7.99 7.99 0 0 1-7.996-7.996V863.84a7.99 7.99 0 0 1 7.996-7.996h87.958v-103.954a7.992 7.992 0 0 1 7.998-7.996 7.992 7.992 0 0 1 7.996 7.996v111.95a7.994 7.994 0 0 1-7.996 7.996h-87.96v63.97H639.94v-63.97h-87.958a7.994 7.994 0 0 1-7.998-7.996v-111.95c0-4.42 3.578-7.996 7.998-7.996s7.996 3.576 7.996 7.996v103.954h87.958a7.99 7.99 0 0 1 7.996 7.996v79.962a7.988 7.988 0 0 1-7.994 7.996z"/>
      <path d="M519.996 903.82a7.99 7.99 0 0 1-7.996-7.996v-143.934c0-4.42 3.576-7.996 7.996-7.996s7.996 3.576 7.996 7.996v143.934a7.99 7.99 0 0 1-7.996 7.996z"/>
      <path d="M615.954 903.82h-95.958c-4.42 0-7.996-3.576-7.996-7.996s3.576-7.996 7.996-7.996h95.958c4.42 0 7.996 3.576 7.996 7.996s-3.576 7.996-7.996 7.996zM871.836 727.902H152.164c-4.418 0-7.996-3.578-7.996-7.998s3.578-7.996 7.996-7.996h719.672c4.42 0 7.996 3.576 7.996 7.996s-3.576 7.998-7.996 7.998z"/>
      <path d="M152.156 727.902a8 8 0 0 1-7.95-7.202L96.23 240.92a7.992 7.992 0 0 1 7.162-8.746c4.538-0.484 8.316 2.764 8.754 7.154l47.978 479.782a7.994 7.994 0 0 1-7.162 8.746c-0.274 0.03-0.54 0.046-0.806 0.046zM871.836 727.902c-0.25 0-0.532-0.016-0.796-0.046a8.006 8.006 0 0 1-7.168-8.746l47.976-479.782c0.454-4.388 4.28-7.652 8.762-7.154a8.004 8.004 0 0 1 7.168 8.746L879.8 720.702a8.02 8.02 0 0 1-7.964 7.2z"/>
      <path d="M919.812 248.122H104.186c-4.418 0-7.996-3.576-7.996-7.996s3.578-7.998 7.996-7.998h815.626c4.422 0 7.996 3.578 7.996 7.998s-3.574 7.996-7.996 7.996zM152.164 152.164a7.992 7.992 0 0 1-7.996-7.996v-15.992a7.992 7.992 0 0 1 7.996-7.996 7.992 7.992 0 0 1 7.998 7.996v15.992a7.992 7.992 0 0 1-7.998 7.996zM871.836 152.164a7.99 7.99 0 0 1-7.996-7.996v-15.992c0-4.42 3.576-7.996 7.996-7.996s7.996 3.576 7.996 7.996v15.992a7.99 7.99 0 0 1-7.996 7.996z"/>
      <path d="M871.836 136.172H376.062a7.986 7.986 0 0 1-7.582-5.466l-14.182-42.512h-132.4l-14.174 42.512a7.986 7.986 0 0 1-7.582 5.466H152.164c-4.418 0-7.996-3.576-7.996-7.996s3.578-7.996 7.996-7.996H194.38l14.172-42.512a7.988 7.988 0 0 1 7.582-5.466h143.928a7.988 7.988 0 0 1 7.582 5.466l14.18 42.512h490.01c4.42 0 7.996 3.576 7.996 7.996s-3.574 7.996-7.994 7.996zM887.828 184.15H136.172c-4.42 0-7.996-3.576-7.996-7.996s3.576-7.998 7.996-7.998h751.656c4.42 0 7.996 3.578 7.996 7.998s-3.576 7.996-7.996 7.996zM903.82 216.134H120.18c-4.42 0-7.996-3.576-7.996-7.996s3.576-7.996 7.996-7.996h783.64c4.42 0 7.996 3.576 7.996 7.996s-3.576 7.996-7.996 7.996zM559.978 535.988a7.99 7.99 0 0 1-7.996-7.996v-79.962c0-4.42 3.576-7.996 7.996-7.996s7.996 3.576 7.996 7.996v79.962a7.99 7.99 0 0 1-7.996 7.996zM368.066 535.988h-23.99a7.992 7.992 0 0 1-7.998-7.996v-79.962a7.992 7.992 0 0 1 7.998-7.996h23.99c26.456 0 47.978 21.522 47.978 47.978s-21.522 47.976-47.978 47.976z m-15.992-15.992h15.994c17.64 0 31.984-14.352 31.984-31.984s-14.344-31.986-31.984-31.986h-15.994v63.97z"/>
      <path d="M591.962 456.026h-63.97c-4.42 0-7.996-3.576-7.996-7.996s3.576-7.996 7.996-7.996h63.97c4.42 0 7.998 3.576 7.998 7.996s-3.578 7.996-7.998 7.996zM440.034 535.988c-0.992 0-2-0.188-2.968-0.578a7.99 7.99 0 0 1-4.458-10.384l31.984-79.962a8.002 8.002 0 0 1 10.394-4.452 7.99 7.99 0 0 1 4.458 10.384l-31.986 79.964a8 8 0 0 1-7.424 5.028z"/>
      <path d="M504.004 535.988a8.002 8.002 0 0 1-7.426-5.028l-31.986-79.964a7.99 7.99 0 0 1 4.458-10.384c4.052-1.624 8.762 0.36 10.394 4.452l31.984 79.962a7.99 7.99 0 0 1-4.458 10.384 7.928 7.928 0 0 1-2.966 0.578z"/>
      <path d="M494.414 512h-44.792c-4.42 0-7.998-3.576-7.998-7.996s3.578-7.996 7.998-7.996h44.792c4.42 0 7.996 3.576 7.996 7.996S498.834 512 494.414 512zM615.954 535.988a8.01 8.01 0 0 1-7.432-10.962l31.984-79.962a8 8 0 0 1 10.402-4.452 8.012 8.012 0 0 1 4.464 10.384l-31.984 79.964a8.016 8.016 0 0 1-7.434 5.028z"/>
      <path d="M679.924 535.988a8.018 8.018 0 0 1-7.436-5.028l-31.984-79.964a8.014 8.014 0 0 1 4.466-10.384c4.06-1.624 8.746 0.36 10.4 4.452l31.986 79.962a8.014 8.014 0 0 1-7.432 10.962z"/>
      <path d="M670.334 512h-44.792c-4.422 0-7.998-3.576-7.998-7.996s3.576-7.996 7.998-7.996h44.792c4.42 0 7.996 3.576 7.996 7.996S674.754 512 670.334 512z"/>
    </g>
  </symbol>

  <symbol id="powerbi" viewBox="-2 -2 28 28">
    <path fill="currentColor" d="M10.465 9.076V22.8H4.664V9.076h5.801zm5.795-8.083V22.8h-5.8V.993h5.8zm5.795 4.398V22.8h-5.8V5.391h5.8z"/>
  </symbol>

  <symbol id="tableau" viewBox="0 0 24 24">
    <path fill="currentColor" d="M12.28 13.565v2.85h-1.28v-2.85H8.16v-1.23h2.84V9.485h1.28v2.85h2.84v1.23h-2.84zM6.16 11.08h1v2.17h2.17v1h-2.17v2.17h-1v-2.17H4v-1h2.16v-2.17zm11.75 0h1v2.17h2.17v1h-2.17v2.17h-1v-2.17h-2.16v-1h2.16v-2.17zM9.41 6.55h1v2.17h2.17v1h-2.17v2.17h-1v-2.17H7.25v-1h2.16V6.55zm8.56 0h1v2.17h2.17v1h-2.17v2.17h-1v-2.17h-2.16v-1h2.16V6.55zM12.28.69h-1v2.17H9.11v1h2.17v2.17h1V3.86h2.17v-1h-2.17V.69zM6.16 2.01h1v2.17h2.17v1h-2.17v2.17h-1V5.18H4v-1h2.16V2.01zm11.75 0h1v2.17h2.17v1h-2.17v2.17h-1V5.18h-2.16v-1h2.16V2.01zM4 15.61h1v2.17h2.17v1H5v2.17H4v-2.17H1.83v-1H4v-2.17zM19.84 15.61h1v2.17h2.17v1h-2.17v2.17h-1v-2.17h-2.16v-1h2.16v-2.17z"/>
  </symbol>


</svg>
